# Blender 4.5.4 LTS
# www.blender.org
mtllib Barrier.mtl
o Barrier|concrete.001
v -0.225000 -0.585379 0.900000
v -0.225000 -0.265979 0.900000
v -0.225000 -0.585379 0.600000
v -0.225000 -0.265979 0.600000
v 0.225000 -0.585379 0.900000
v 0.225000 -0.265979 0.900000
v 0.225000 -0.585379 0.600000
v 0.225000 -0.265979 0.600000
v -0.078576 0.311737 0.900000
v -0.078576 0.311737 0.600000
v 0.078576 0.311737 0.600000
v 0.078576 0.311737 0.900000
v -0.078576 0.539621 0.600000
v 0.078576 0.539621 0.600000
v -0.225000 -0.265979 0.300000
v -0.225000 -0.585379 0.300000
v 0.225000 -0.585379 0.300000
v 0.225000 -0.265979 0.300000
v -0.078576 0.311737 0.300000
v 0.078576 0.311737 0.300000
v -0.078576 0.539621 0.300000
v 0.078576 0.539621 0.300000
v -0.225000 -0.265979 0.000000
v -0.225000 -0.585379 0.000000
v 0.225000 -0.585379 0.000000
v 0.225000 -0.265979 0.000000
v -0.078576 0.311737 0.000000
v 0.078576 0.311737 0.000000
v -0.078576 0.539621 0.000000
v 0.078576 0.539621 0.000000
v -0.225000 -0.265979 -0.300000
v -0.225000 -0.585379 -0.300000
v 0.225000 -0.585379 -0.300000
v 0.225000 -0.265979 -0.300000
v -0.078576 0.311737 -0.300000
v 0.078576 0.311737 -0.300000
v -0.078576 0.539621 -0.300000
v 0.078576 0.539621 -0.300000
v -0.225000 -0.265979 -0.600000
v -0.225000 -0.585379 -0.600000
v 0.225000 -0.585379 -0.600000
v 0.225000 -0.265979 -0.600000
v -0.078576 0.311737 -0.600000
v 0.078576 0.311737 -0.600000
v -0.078576 0.539621 -0.600000
v 0.078576 0.539621 -0.600000
v -0.225000 -0.265979 -0.900000
v -0.225000 -0.585379 -0.900000
v 0.225000 -0.585379 -0.900000
v 0.225000 -0.265979 -0.900000
v -0.078576 0.311737 -0.900000
v 0.078576 0.311737 -0.900000
v -0.078576 0.539621 -0.900000
v 0.078576 0.539621 -0.900000
v 0.078576 0.539621 0.900000
v -0.078576 0.539621 0.900000
vn -1.0000 -0.0000 -0.0000
vn -0.0000 -1.0000 -0.0000
vn 1.0000 -0.0000 -0.0000
vn 0.9693 0.2457 -0.0000
vn -0.9694 0.2457 -0.0000
vn -0.0000 1.0000 -0.0000
vn -0.0000 -0.0000 -1.0000
vn -0.0000 -0.0000 1.0000
vt 0.375000 0.000000
vt 0.625000 0.000000
vt 0.625000 0.250000
vt 0.375000 0.250000
vt 0.375000 0.500000
vt 0.125000 0.500000
vt 0.625000 0.500000
vt 0.625000 0.750000
vt 0.375000 0.750000
vt 0.125000 0.750000
vt 0.875000 0.500000
vt 0.875000 0.750000
s 0
usemtl Material.002
f 7/5/2 3/6/2 16/6/2 17/5/2
f 8/7/3 7/5/3 17/5/3 18/7/3
f 4/3/5 10/3/5 19/3/5 15/3/5
f 14/7/3 11/7/3 20/7/3 22/7/3
f 10/3/1 13/3/1 21/3/1 19/3/1
f 11/7/4 8/7/4 18/7/4 20/7/4
f 3/4/1 4/3/1 15/3/1 16/4/1
f 13/11/6 14/7/6 22/7/6 21/11/6
f 24/4/1 23/3/1 31/3/1 32/4/1
f 23/3/5 27/3/5 35/3/5 31/3/5
f 30/7/3 28/7/3 36/7/3 38/7/3
f 27/3/1 29/3/1 37/3/1 35/3/1
f 29/11/6 30/7/6 38/7/6 37/11/6
f 28/7/4 26/7/4 34/7/4 36/7/4
f 26/7/3 25/5/3 33/5/3 34/7/3
f 25/5/2 24/6/2 32/6/2 33/5/2
f 44/7/4 42/7/4 50/7/4 52/7/4
f 45/11/6 46/7/6 54/7/6 53/11/6
f 43/3/1 45/3/1 53/3/1 51/3/1
f 48/4/7 47/3/7 50/7/7 49/5/7
f 50/7/7 47/3/7 51/3/7 52/7/7
f 52/7/7 51/3/7 53/3/7 54/7/7
f 42/7/3 41/5/3 49/5/3 50/7/3
f 41/5/2 40/6/2 48/6/2 49/5/2
f 46/7/3 44/7/3 52/7/3 54/7/3
f 39/3/5 43/3/5 51/3/5 47/3/5
f 40/4/1 39/3/1 47/3/1 48/4/1
usemtl Material.006
f 1/1/1 2/2/1 4/3/1 3/4/1
f 7/5/3 8/7/3 6/8/3 5/9/3
f 3/6/2 7/5/2 5/9/2 1/10/2
f 6/8/4 8/7/4 11/7/4 12/8/4
f 12/8/3 11/7/3 14/7/3 55/8/3
f 4/3/5 2/2/5 9/2/5 10/3/5
f 14/7/6 13/11/6 56/12/6 55/8/6
f 10/3/1 9/2/1 56/2/1 13/3/1
f 21/11/6 22/7/6 30/7/6 29/11/6
f 19/3/1 21/3/1 29/3/1 27/3/1
f 16/4/1 15/3/1 23/3/1 24/4/1
f 20/7/4 18/7/4 26/7/4 28/7/4
f 18/7/3 17/5/3 25/5/3 26/7/3
f 17/5/2 16/6/2 24/6/2 25/5/2
f 22/7/3 20/7/3 28/7/3 30/7/3
f 15/3/5 19/3/5 27/3/5 23/3/5
f 38/7/3 36/7/3 44/7/3 46/7/3
f 33/5/2 32/6/2 40/6/2 41/5/2
f 34/7/3 33/5/3 41/5/3 42/7/3
f 31/3/5 35/3/5 43/3/5 39/3/5
f 32/4/1 31/3/1 39/3/1 40/4/1
f 35/3/1 37/3/1 45/3/1 43/3/1
f 37/11/6 38/7/6 46/7/6 45/11/6
f 36/7/4 34/7/4 42/7/4 44/7/4
f 56/2/8 9/2/8 12/8/8 55/8/8
f 12/8/8 9/2/8 2/2/8 6/8/8
f 1/10/8 5/9/8 6/8/8 2/2/8
