# Blender 4.5.4 LTS
# www.blender.org
mtllib finishline.mtl
o Cube.001
v 2.938702 5.883611 -0.102295
v 2.938702 4.228034 -0.102295
v 2.938702 5.883611 0.102293
v 2.938702 4.228034 0.102293
v -2.938702 5.883611 -0.102295
v -2.938702 4.228034 -0.102295
v -2.938702 5.883611 0.102293
v -2.938702 4.228034 0.102293
v 2.204027 5.883611 0.102293
v 1.469351 5.883611 0.102293
v 0.734675 5.883611 0.102293
v -0.000000 5.883611 0.102293
v -0.734676 5.883611 0.102293
v -1.469351 5.883611 0.102293
v -2.204027 5.883611 0.102293
v -2.204027 4.228034 0.102293
v -1.469351 4.228034 0.102293
v -0.734675 4.228034 0.102293
v 0.000000 4.228034 0.102293
v 0.734676 4.228034 0.102293
v 1.469351 4.228034 0.102293
v 2.204027 4.228034 0.102293
v -2.204027 5.883611 -0.102295
v -1.469351 5.883611 -0.102295
v -0.734675 5.883611 -0.102295
v 0.000000 5.883611 -0.102295
v 0.734676 5.883611 -0.102295
v 1.469351 5.883611 -0.102295
v 2.204027 5.883611 -0.102295
v 2.204027 4.228034 -0.102295
v 1.469351 4.228034 -0.102295
v 0.734675 4.228034 -0.102295
v -0.000000 4.228034 -0.102295
v -0.734676 4.228034 -0.102295
v -1.469351 4.228034 -0.102295
v -2.204027 4.228034 -0.102295
v 2.938702 5.331752 0.102293
v 2.938702 4.779893 0.102293
v 2.938702 5.331752 -0.102295
v 2.938702 4.779893 -0.102295
v -2.938702 5.331752 -0.102295
v -2.938702 4.779893 -0.102295
v -2.938702 4.779893 0.102293
v -2.938702 5.331752 0.102293
v -2.204027 5.331752 -0.102295
v -2.204027 4.779893 -0.102295
v -1.469351 5.331752 -0.102295
v -1.469351 4.779893 -0.102295
v -0.734676 5.331752 -0.102295
v -0.734676 4.779893 -0.102295
v 0.000000 5.331752 -0.102295
v -0.000000 4.779893 -0.102295
v 0.734676 5.331752 -0.102295
v 0.734676 4.779893 -0.102295
v 1.469351 5.331752 -0.102295
v 1.469351 4.779893 -0.102295
v 2.204027 5.331752 -0.102295
v 2.204027 4.779893 -0.102295
v 2.204027 5.331752 0.102293
v 2.204027 4.779893 0.102293
v 1.469351 5.331752 0.102293
v 1.469351 4.779893 0.102293
v 0.734676 5.331752 0.102293
v 0.734676 4.779893 0.102293
v -0.000000 5.331752 0.102293
v 0.000000 4.779893 0.102293
v -0.734676 5.331752 0.102293
v -0.734676 4.779893 0.102293
v -1.469351 5.331752 0.102293
v -1.469351 4.779893 0.102293
v -2.204027 5.331752 0.102293
v -2.204027 4.779893 0.102293
vn -0.0000 -0.0000 1.0000
vn 1.0000 -0.0000 -0.0000
vn -0.0000 -0.0000 -1.0000
vn -1.0000 -0.0000 -0.0000
vn -0.0000 1.0000 -0.0000
vn -0.0000 -1.0000 -0.0000
vt 0.541667 0.218750
vt 0.625000 0.218750
vt 0.625000 0.250000
vt 0.541667 0.250000
vt 0.625000 0.500000
vt 0.541667 0.500000
vt 0.541667 0.718750
vt 0.625000 0.718750
vt 0.625000 0.750000
vt 0.541667 0.750000
vt 0.625000 1.000000
vt 0.541667 1.000000
vt 0.343750 0.500000
vt 0.375000 0.500000
vt 0.375000 0.750000
vt 0.343750 0.750000
vt 0.843750 0.500000
vt 0.875000 0.500000
vt 0.875000 0.750000
vt 0.843750 0.750000
vt 0.656250 0.500000
vt 0.656250 0.750000
vt 0.687500 0.500000
vt 0.687500 0.750000
vt 0.718750 0.500000
vt 0.718750 0.750000
vt 0.750000 0.500000
vt 0.750000 0.750000
vt 0.781250 0.500000
vt 0.781250 0.750000
vt 0.812500 0.500000
vt 0.812500 0.750000
vt 0.125000 0.500000
vt 0.156250 0.500000
vt 0.156250 0.750000
vt 0.125000 0.750000
vt 0.187500 0.500000
vt 0.187500 0.750000
vt 0.218750 0.500000
vt 0.218750 0.750000
vt 0.250000 0.500000
vt 0.250000 0.750000
vt 0.281250 0.500000
vt 0.281250 0.750000
vt 0.312500 0.500000
vt 0.312500 0.750000
vt 0.625000 0.531250
vt 0.541667 0.531250
vt 0.625000 0.562500
vt 0.541667 0.562500
vt 0.625000 0.593750
vt 0.541667 0.593750
vt 0.625000 0.625000
vt 0.541667 0.625000
vt 0.625000 0.656250
vt 0.541667 0.656250
vt 0.625000 0.687500
vt 0.541667 0.687500
vt 0.541667 0.000000
vt 0.625000 0.000000
vt 0.625000 0.031250
vt 0.541667 0.031250
vt 0.625000 0.062500
vt 0.541667 0.062500
vt 0.625000 0.093750
vt 0.541667 0.093750
vt 0.625000 0.125000
vt 0.541667 0.125000
vt 0.625000 0.156250
vt 0.541667 0.156250
vt 0.625000 0.187500
vt 0.541667 0.187500
vt 0.375000 0.187500
vt 0.458333 0.187500
vt 0.458333 0.218750
vt 0.375000 0.218750
vt 0.375000 0.156250
vt 0.458333 0.156250
vt 0.375000 0.125000
vt 0.458333 0.125000
vt 0.375000 0.093750
vt 0.458333 0.093750
vt 0.375000 0.062500
vt 0.458333 0.062500
vt 0.375000 0.031250
vt 0.458333 0.031250
vt 0.375000 0.000000
vt 0.458333 0.000000
vt 0.375000 0.687500
vt 0.458333 0.687500
vt 0.458333 0.718750
vt 0.375000 0.718750
vt 0.375000 0.656250
vt 0.458333 0.656250
vt 0.375000 0.625000
vt 0.458333 0.625000
vt 0.375000 0.593750
vt 0.458333 0.593750
vt 0.375000 0.562500
vt 0.458333 0.562500
vt 0.375000 0.531250
vt 0.458333 0.531250
vt 0.458333 0.500000
vt 0.458333 0.750000
vt 0.458333 1.000000
vt 0.375000 1.000000
vt 0.375000 0.250000
vt 0.458333 0.250000
s 1
usemtl Material.001
f 39/4/2 1/3/2 3/5/2 37/6/2
f 44/10/4 7/9/4 5/11/4 41/12/4
f 23/13/5 5/14/5 7/15/5 15/16/5
f 6/5/6 36/21/6 16/22/6 8/9/6
f 35/23/6 34/25/6 18/26/6 17/24/6
f 33/27/6 32/29/6 20/30/6 19/28/6
f 31/31/6 30/17/6 22/20/6 21/32/6
f 29/34/5 28/37/5 10/38/5 9/35/5
f 27/39/5 26/41/5 12/42/5 11/40/5
f 25/43/5 24/45/5 14/46/5 13/44/5
f 41/6/3 5/5/3 23/47/3 45/48/3
f 47/50/3 24/49/3 25/51/3 49/52/3
f 51/54/3 26/53/3 27/55/3 53/56/3
f 55/58/3 28/57/3 29/8/3 57/7/3
f 37/59/1 3/60/1 9/61/1 59/62/1
f 61/64/1 10/63/1 11/65/1 63/66/1
f 65/68/1 12/67/1 13/69/1 67/70/1
f 69/72/1 14/71/1 15/2/1 71/1/1
f 17/73/1 70/74/1 72/75/1 16/76/1
f 68/78/1 67/70/1 69/72/1 70/74/1
f 19/79/1 66/80/1 68/78/1 18/77/1
f 64/82/1 63/66/1 65/68/1 66/80/1
f 21/83/1 62/84/1 64/82/1 20/81/1
f 60/86/1 59/62/1 61/64/1 62/84/1
f 4/87/1 38/88/1 60/86/1 22/85/1
f 31/89/3 56/90/3 58/91/3 30/92/3
f 54/94/3 53/56/3 55/58/3 56/90/3
f 33/95/3 52/96/3 54/94/3 32/93/3
f 50/98/3 49/52/3 51/54/3 52/96/3
f 35/99/3 48/100/3 50/98/3 34/97/3
f 46/102/3 45/48/3 47/50/3 48/100/3
f 6/14/3 42/103/3 46/102/3 36/101/3
f 8/15/4 43/104/4 42/105/4 6/106/4
f 43/104/4 44/10/4 41/12/4 42/105/4
f 58/91/3 57/7/3 39/10/3 40/104/3
f 2/107/2 40/108/2 38/103/2 4/14/2
f 40/108/2 39/4/2 37/6/2 38/103/2
f 72/75/1 71/1/1 44/4/1 43/108/1
usemtl Material.002
f 71/1/1 15/2/1 7/3/1 44/4/1
f 57/7/3 29/8/3 1/9/3 39/10/3
f 30/17/6 2/18/6 4/19/6 22/20/6
f 36/21/6 35/23/6 17/24/6 16/22/6
f 34/25/6 33/27/6 19/28/6 18/26/6
f 32/29/6 31/31/6 21/32/6 20/30/6
f 1/33/5 29/34/5 9/35/5 3/36/5
f 28/37/5 27/39/5 11/40/5 10/38/5
f 26/41/5 25/43/5 13/44/5 12/42/5
f 24/45/5 23/13/5 15/16/5 14/46/5
f 45/48/3 23/47/3 24/49/3 47/50/3
f 49/52/3 25/51/3 26/53/3 51/54/3
f 53/56/3 27/55/3 28/57/3 55/58/3
f 59/62/1 9/61/1 10/63/1 61/64/1
f 63/66/1 11/65/1 12/67/1 65/68/1
f 67/70/1 13/69/1 14/71/1 69/72/1
f 70/74/1 69/72/1 71/1/1 72/75/1
f 18/77/1 68/78/1 70/74/1 17/73/1
f 66/80/1 65/68/1 67/70/1 68/78/1
f 20/81/1 64/82/1 66/80/1 19/79/1
f 62/84/1 61/64/1 63/66/1 64/82/1
f 22/85/1 60/86/1 62/84/1 21/83/1
f 38/88/1 37/59/1 59/62/1 60/86/1
f 56/90/3 55/58/3 57/7/3 58/91/3
f 32/93/3 54/94/3 56/90/3 31/89/3
f 52/96/3 51/54/3 53/56/3 54/94/3
f 34/97/3 50/98/3 52/96/3 33/95/3
f 48/100/3 47/50/3 49/52/3 50/98/3
f 36/101/3 46/102/3 48/100/3 35/99/3
f 42/103/3 41/6/3 45/48/3 46/102/3
f 30/92/3 58/91/3 40/104/3 2/15/3
f 16/76/1 72/75/1 43/108/1 8/107/1
o Cube.002
v -2.938702 -0.160816 0.712637
v -2.938702 0.023478 0.712637
v -2.938702 -0.160817 -0.712637
v -2.938702 0.023478 -0.712637
v 2.938702 -0.160816 0.712637
v 2.938702 0.023478 0.712637
v 2.938702 -0.160817 -0.712637
v 2.938702 0.023478 -0.712637
v 2.285657 -0.160817 -0.712637
v 1.632612 -0.160817 -0.712637
v 0.979567 -0.160817 -0.712637
v 0.326522 -0.160817 -0.712637
v -0.326523 -0.160817 -0.712637
v -0.979567 -0.160817 -0.712637
v -1.632612 -0.160817 -0.712637
v -2.285657 -0.160817 -0.712637
v -2.285657 0.023478 -0.712637
v -1.632612 0.023478 -0.712637
v -0.979567 0.023478 -0.712637
v -0.326522 0.023478 -0.712637
v 0.326523 0.023478 -0.712637
v 0.979567 0.023478 -0.712637
v 1.632612 0.023478 -0.712637
v 2.285657 0.023478 -0.712637
v -2.285657 -0.160816 0.712637
v -1.632612 -0.160816 0.712637
v -0.979567 -0.160816 0.712637
v -0.326522 -0.160816 0.712637
v 0.326523 -0.160816 0.712637
v 0.979567 -0.160816 0.712637
v 1.632612 -0.160816 0.712637
v 2.285657 -0.160816 0.712637
v 2.285657 0.023478 0.712637
v 1.632612 0.023478 0.712637
v 0.979567 0.023478 0.712637
v 0.326522 0.023478 0.712637
v -0.326523 0.023478 0.712637
v -0.979567 0.023478 0.712637
v -1.632612 0.023478 0.712637
v -2.285657 0.023478 0.712637
v -2.938702 -0.160816 -0.237546
v -2.938702 -0.160816 0.237546
v -2.938702 0.023478 0.237546
v -2.938702 0.023478 -0.237546
v 2.938702 -0.160816 0.237546
v 2.938702 -0.160816 -0.237546
v 2.938702 0.023478 -0.237546
v 2.938702 0.023478 0.237546
v 2.285657 0.023478 -0.237546
v 2.285657 0.023478 0.237546
v 1.632612 0.023478 -0.237546
v 1.632612 0.023478 0.237546
v 0.979567 0.023478 -0.237546
v 0.979567 0.023478 0.237546
v 0.326522 0.023478 -0.237546
v 0.326522 0.023478 0.237546
v -0.326522 0.023478 -0.237546
v -0.326522 0.023478 0.237546
v -0.979567 0.023478 -0.237546
v -0.979567 0.023478 0.237546
v -1.632612 0.023478 -0.237546
v -1.632612 0.023478 0.237546
v -2.285657 0.023478 -0.237546
v -2.285657 0.023478 0.237546
v -2.285657 -0.160816 -0.237546
v -2.285657 -0.160816 0.237546
v -1.632612 -0.160816 -0.237546
v -1.632612 -0.160816 0.237546
v -0.979567 -0.160816 -0.237546
v -0.979567 -0.160816 0.237546
v -0.326522 -0.160816 -0.237546
v -0.326522 -0.160816 0.237546
v 0.326522 -0.160816 -0.237546
v 0.326522 -0.160816 0.237546
v 0.979567 -0.160816 -0.237546
v 0.979567 -0.160816 0.237546
v 1.632612 -0.160816 -0.237546
v 1.632612 -0.160816 0.237546
v 2.285657 -0.160816 -0.237546
v 2.285657 -0.160816 0.237546
vn -1.0000 -0.0000 -0.0000
vn -0.0000 -0.0000 -1.0000
vn 1.0000 -0.0000 -0.0000
vn -0.0000 -0.0000 1.0000
vn -0.0000 -1.0000 -0.0000
vn -0.0000 1.0000 -0.0000
vt 0.375000 0.166667
vt 0.625000 0.166667
vt 0.625000 0.250000
vt 0.375000 0.250000
vt 0.375000 0.472222
vt 0.625000 0.472222
vt 0.625000 0.500000
vt 0.375000 0.500000
vt 0.375000 0.666667
vt 0.625000 0.666667
vt 0.625000 0.750000
vt 0.375000 0.750000
vt 0.375000 0.972222
vt 0.625000 0.972222
vt 0.625000 1.000000
vt 0.375000 1.000000
vt 0.347222 0.666667
vt 0.347222 0.750000
vt 0.847222 0.666667
vt 0.875000 0.666667
vt 0.875000 0.750000
vt 0.847222 0.750000
vt 0.652778 0.666667
vt 0.652778 0.750000
vt 0.680556 0.666667
vt 0.680556 0.750000
vt 0.708333 0.666667
vt 0.708333 0.750000
vt 0.736111 0.666667
vt 0.736111 0.750000
vt 0.763889 0.666667
vt 0.763889 0.750000
vt 0.791667 0.666667
vt 0.791667 0.750000
vt 0.819444 0.666667
vt 0.819444 0.750000
vt 0.125000 0.666667
vt 0.152778 0.666667
vt 0.152778 0.750000
vt 0.125000 0.750000
vt 0.180556 0.666667
vt 0.180556 0.750000
vt 0.208333 0.666667
vt 0.208333 0.750000
vt 0.236111 0.666667
vt 0.236111 0.750000
vt 0.263889 0.666667
vt 0.263889 0.750000
vt 0.291667 0.666667
vt 0.291667 0.750000
vt 0.319444 0.666667
vt 0.319444 0.750000
vt 0.625000 0.777778
vt 0.375000 0.777778
vt 0.625000 0.805556
vt 0.375000 0.805556
vt 0.625000 0.833333
vt 0.375000 0.833333
vt 0.625000 0.861111
vt 0.375000 0.861111
vt 0.625000 0.888889
vt 0.375000 0.888889
vt 0.625000 0.916667
vt 0.375000 0.916667
vt 0.625000 0.944444
vt 0.375000 0.944444
vt 0.625000 0.277778
vt 0.375000 0.277778
vt 0.625000 0.305556
vt 0.375000 0.305556
vt 0.625000 0.333333
vt 0.375000 0.333333
vt 0.625000 0.361111
vt 0.375000 0.361111
vt 0.625000 0.388889
vt 0.375000 0.388889
vt 0.625000 0.416667
vt 0.375000 0.416667
vt 0.625000 0.444444
vt 0.375000 0.444444
vt 0.319444 0.500000
vt 0.347222 0.500000
vt 0.347222 0.583333
vt 0.319444 0.583333
vt 0.291667 0.500000
vt 0.291667 0.583333
vt 0.263889 0.500000
vt 0.263889 0.583333
vt 0.236111 0.500000
vt 0.236111 0.583333
vt 0.208333 0.500000
vt 0.208333 0.583333
vt 0.180556 0.500000
vt 0.180556 0.583333
vt 0.152778 0.500000
vt 0.152778 0.583333
vt 0.125000 0.500000
vt 0.125000 0.583333
vt 0.819444 0.500000
vt 0.847222 0.500000
vt 0.847222 0.583333
vt 0.819444 0.583333
vt 0.791667 0.500000
vt 0.791667 0.583333
vt 0.763889 0.500000
vt 0.763889 0.583333
vt 0.736111 0.500000
vt 0.736111 0.583333
vt 0.708333 0.500000
vt 0.708333 0.583333
vt 0.680556 0.500000
vt 0.680556 0.583333
vt 0.652778 0.500000
vt 0.652778 0.583333
vt 0.625000 0.583333
vt 0.875000 0.500000
vt 0.875000 0.583333
vt 0.375000 0.583333
vt 0.375000 0.000000
vt 0.625000 0.000000
vt 0.625000 0.083333
vt 0.375000 0.083333
s 1
usemtl Material.001
f 113/109/7 116/110/7 76/111/7 75/112/7
f 117/117/9 120/118/9 78/119/9 77/120/9
f 152/125/11 117/117/11 77/120/11 104/126/11
f 122/131/12 124/133/12 106/134/12 105/132/12
f 126/135/12 128/137/12 108/138/12 107/136/12
f 130/139/12 132/141/12 110/142/12 109/140/12
f 134/143/12 136/127/12 112/130/12 111/144/12
f 114/145/11 138/146/11 97/147/11 73/148/11
f 138/146/11 140/149/11 98/150/11 97/147/11
f 140/149/11 142/151/11 99/152/11 98/150/11
f 142/151/11 144/153/11 100/154/11 99/152/11
f 144/153/11 146/155/11 101/156/11 100/154/11
f 146/155/11 148/157/11 102/158/11 101/156/11
f 148/157/11 150/159/11 103/160/11 102/158/11
f 150/159/11 152/125/11 104/126/11 103/160/11
f 104/162/10 105/161/10 106/163/10 103/164/10
f 102/166/10 107/165/10 108/167/10 101/168/10
f 100/170/10 109/169/10 110/171/10 99/172/10
f 98/174/10 111/173/10 112/122/10 97/121/10
f 88/176/8 89/175/8 90/177/8 87/178/8
f 86/180/8 91/179/8 92/181/8 85/182/8
f 84/184/8 93/183/8 94/185/8 83/186/8
f 82/188/8 95/187/8 96/114/8 81/113/8
f 82/189/11 81/190/11 151/191/11 149/192/11
f 149/192/11 151/191/11 152/125/11 150/159/11
f 83/193/11 82/189/11 149/192/11 147/194/11
f 147/194/11 149/192/11 150/159/11 148/157/11
f 84/195/11 83/193/11 147/194/11 145/196/11
f 145/196/11 147/194/11 148/157/11 146/155/11
f 85/197/11 84/195/11 145/196/11 143/198/11
f 143/198/11 145/196/11 146/155/11 144/153/11
f 86/199/11 85/197/11 143/198/11 141/200/11
f 141/200/11 143/198/11 144/153/11 142/151/11
f 87/201/11 86/199/11 141/200/11 139/202/11
f 139/202/11 141/200/11 142/151/11 140/149/11
f 88/203/11 87/201/11 139/202/11 137/204/11
f 137/204/11 139/202/11 140/149/11 138/146/11
f 75/205/11 88/203/11 137/204/11 113/206/11
f 113/206/11 137/204/11 138/146/11 114/145/11
f 90/207/12 89/208/12 135/209/12 133/210/12
f 131/212/12 133/210/12 134/143/12 132/141/12
f 92/213/12 91/211/12 131/212/12 129/214/12
f 127/216/12 129/214/12 130/139/12 128/137/12
f 94/217/12 93/215/12 127/216/12 125/218/12
f 123/220/12 125/218/12 126/135/12 124/133/12
f 96/221/12 95/219/12 123/220/12 121/222/12
f 119/223/12 121/222/12 122/131/12 120/118/12
f 135/209/12 116/225/12 115/128/12 136/127/12
f 81/190/11 79/116/11 118/226/11 151/191/11
f 151/191/11 118/226/11 117/117/11 152/125/11
f 79/116/9 80/115/9 119/223/9 118/226/9
f 118/226/9 119/223/9 120/118/9 117/117/9
f 73/227/7 74/228/7 115/229/7 114/230/7
f 114/230/7 115/229/7 116/110/7 113/109/7
usemtl Material.002
f 81/113/8 96/114/8 80/115/8 79/116/8
f 97/121/10 112/122/10 74/123/10 73/124/10
f 136/127/12 115/128/12 74/129/12 112/130/12
f 120/118/12 122/131/12 105/132/12 78/119/12
f 124/133/12 126/135/12 107/136/12 106/134/12
f 128/137/12 130/139/12 109/140/12 108/138/12
f 132/141/12 134/143/12 111/144/12 110/142/12
f 77/120/10 78/119/10 105/161/10 104/162/10
f 103/164/10 106/163/10 107/165/10 102/166/10
f 101/168/10 108/167/10 109/169/10 100/170/10
f 99/172/10 110/171/10 111/173/10 98/174/10
f 75/112/8 76/111/8 89/175/8 88/176/8
f 87/178/8 90/177/8 91/179/8 86/180/8
f 85/182/8 92/181/8 93/183/8 84/184/8
f 83/186/8 94/185/8 95/187/8 82/188/8
f 133/210/12 135/209/12 136/127/12 134/143/12
f 91/211/12 90/207/12 133/210/12 131/212/12
f 129/214/12 131/212/12 132/141/12 130/139/12
f 93/215/12 92/213/12 129/214/12 127/216/12
f 125/218/12 127/216/12 128/137/12 126/135/12
f 95/219/12 94/217/12 125/218/12 123/220/12
f 121/222/12 123/220/12 124/133/12 122/131/12
f 80/115/12 96/221/12 121/222/12 119/223/12
f 89/208/12 76/224/12 116/225/12 135/209/12
o Cube.003
v 3.234068 6.021380 -0.153145
v 3.234068 -0.003404 -0.153144
v 3.234068 6.021380 0.153143
v 3.234068 -0.003403 0.153144
v 2.938702 6.021380 -0.153145
v 2.938702 -0.003404 -0.153144
v 2.938702 6.021380 0.153143
v 2.938702 -0.003403 0.153144
v -3.234068 6.021380 -0.153145
v -3.234068 -0.003404 -0.153144
v -3.234068 6.021380 0.153143
v -3.234068 -0.003403 0.153144
v -2.938702 6.021380 -0.153145
v -2.938702 -0.003404 -0.153144
v -2.938702 6.021380 0.153143
v -2.938702 -0.003403 0.153144
vn -0.0000 1.0000 -0.0000
vn -0.0000 -0.0000 1.0000
vn -1.0000 -0.0000 -0.0000
vn -0.0000 -1.0000 -0.0000
vn 1.0000 -0.0000 -0.0000
vn -0.0000 -0.0000 -1.0000
vt 0.625000 0.500000
vt 0.875000 0.500000
vt 0.875000 0.750000
vt 0.625000 0.750000
vt 0.375000 0.750000
vt 0.625000 1.000000
vt 0.375000 1.000000
vt 0.375000 0.000000
vt 0.625000 0.000000
vt 0.625000 0.250000
vt 0.375000 0.250000
vt 0.125000 0.500000
vt 0.375000 0.500000
vt 0.125000 0.750000
s 1
usemtl Material.001
f 153/231/13 157/232/13 159/233/13 155/234/13
f 156/235/14 155/234/14 159/236/14 160/237/14
f 160/238/15 159/239/15 157/240/15 158/241/15
f 158/242/16 154/243/16 156/235/16 160/244/16
f 154/243/17 153/231/17 155/234/17 156/235/17
f 158/241/18 157/240/18 153/231/18 154/243/18
f 161/231/13 163/234/13 167/233/13 165/232/13
f 164/235/14 168/237/14 167/236/14 163/234/14
f 168/238/17 166/241/17 165/240/17 167/239/17
f 166/242/16 168/244/16 164/235/16 162/243/16
f 162/243/15 164/235/15 163/234/15 161/231/15
f 166/241/18 162/243/18 161/231/18 165/240/18
