# Blender 4.5.4 LTS
# www.blender.org
mtllib simple_car_wheels3.mtl
o wheel_fl
v -0.323068 -0.034247 -0.042795
v -0.308888 -0.100668 -0.042795
v -0.281208 -0.162690 -0.042795
v -0.241238 -0.217601 -0.042795
v -0.190724 -0.263002 -0.042795
v -0.131875 -0.296908 -0.042795
v -0.067263 -0.317839 -0.042795
v 0.000289 -0.324878 -0.042795
v 0.067829 -0.317718 -0.042795
v 0.132404 -0.296673 -0.042795
v 0.191192 -0.262661 -0.042795
v 0.241625 -0.217170 -0.042795
v 0.281497 -0.162188 -0.042795
v 0.309066 -0.100117 -0.042795
v 0.323128 -0.033671 -0.042795
v 0.323067 0.034247 -0.042795
v 0.308887 0.100668 -0.042795
v 0.281207 0.162690 -0.042795
v 0.241237 0.217601 -0.042795
v 0.190723 0.263002 -0.042795
v 0.131874 0.296908 -0.042795
v 0.067262 0.317838 -0.042795
v -0.000290 0.324878 -0.042795
v -0.067830 0.317718 -0.042795
v -0.132405 0.296672 -0.042795
v -0.191193 0.262661 -0.042795
v -0.241625 0.217170 -0.042795
v -0.281497 0.162188 -0.042795
v -0.309067 0.100118 -0.042795
v -0.323128 0.033671 -0.042795
v -0.323068 -0.034247 0.209367
v -0.308888 -0.100668 0.209367
v -0.281208 -0.162690 0.209367
v -0.241238 -0.217601 0.209367
v -0.190724 -0.263002 0.209367
v -0.131875 -0.296908 0.209367
v -0.067263 -0.317839 0.209367
v 0.000289 -0.324878 0.209367
v 0.067829 -0.317718 0.209367
v 0.132404 -0.296673 0.209367
v 0.191192 -0.262661 0.209367
v 0.241625 -0.217170 0.209367
v 0.281497 -0.162188 0.209367
v 0.309066 -0.100117 0.209367
v 0.323128 -0.033671 0.209367
v 0.323067 0.034247 0.209367
v 0.308887 0.100668 0.209367
v 0.281207 0.162690 0.209367
v 0.241237 0.217601 0.209367
v 0.190723 0.263002 0.209367
v 0.131874 0.296908 0.209367
v 0.067262 0.317838 0.209367
v -0.000290 0.324878 0.209367
v -0.067830 0.317718 0.209367
v -0.132405 0.296672 0.209367
v -0.191193 0.262661 0.209367
v -0.241625 0.217170 0.209367
v -0.281497 0.162188 0.209367
v -0.309067 0.100117 0.209367
v -0.323128 0.033671 0.209367
v 0.000000 -0.000000 0.209367
v -0.203103 -0.021530 -0.042795
v -0.194189 -0.063287 -0.042795
v -0.176787 -0.102278 -0.042795
v -0.151659 -0.136799 -0.042795
v -0.119903 -0.165342 -0.042795
v -0.082906 -0.186658 -0.042795
v -0.042286 -0.199816 -0.042795
v 0.000182 -0.204241 -0.042795
v 0.042642 -0.199740 -0.042795
v 0.083238 -0.186510 -0.042795
v 0.120197 -0.165127 -0.042795
v 0.151902 -0.136529 -0.042795
v 0.176969 -0.101963 -0.042795
v 0.194301 -0.062941 -0.042795
v 0.203141 -0.021168 -0.042795
v 0.203103 0.021530 -0.042795
v 0.194188 0.063287 -0.042795
v 0.176786 0.102278 -0.042795
v 0.151658 0.136799 -0.042795
v 0.119902 0.165341 -0.042795
v 0.082905 0.186657 -0.042795
v 0.042286 0.199815 -0.042795
v -0.000183 0.204241 -0.042795
v -0.042643 0.199740 -0.042795
v -0.083239 0.186509 -0.042795
v -0.120198 0.165127 -0.042795
v -0.151903 0.136528 -0.042795
v -0.176969 0.101963 -0.042795
v -0.194301 0.062941 -0.042795
v -0.203141 0.021168 -0.042795
v -0.203103 -0.021530 -0.048171
v -0.194189 -0.063287 -0.048171
v -0.176787 -0.102278 -0.048171
v -0.151659 -0.136799 -0.048171
v -0.119903 -0.165342 -0.048171
v -0.082906 -0.186658 -0.048171
v -0.042286 -0.199816 -0.048171
v 0.000182 -0.204241 -0.048171
v 0.042642 -0.199740 -0.048171
v 0.083238 -0.186510 -0.048171
v 0.120197 -0.165127 -0.048171
v 0.151902 -0.136529 -0.048171
v 0.176969 -0.101963 -0.048171
v 0.194301 -0.062941 -0.048171
v 0.203141 -0.021168 -0.048171
v 0.203103 0.021530 -0.048171
v 0.194188 0.063287 -0.048171
v 0.176786 0.102278 -0.048171
v 0.151658 0.136799 -0.048171
v 0.119902 0.165341 -0.048171
v 0.082905 0.186657 -0.048171
v 0.042286 0.199815 -0.048171
v -0.000183 0.204241 -0.048171
v -0.042643 0.199740 -0.048171
v -0.083239 0.186509 -0.048171
v -0.120198 0.165127 -0.048171
v -0.151903 0.136528 -0.048171
v -0.176969 0.101963 -0.048171
v -0.194301 0.062941 -0.048171
v -0.203141 0.021168 -0.048171
v -0.179935 -0.019074 -0.048171
v -0.172038 -0.056068 -0.048171
v -0.156621 -0.090611 -0.048171
v -0.134359 -0.121194 -0.048171
v -0.106225 -0.146481 -0.048171
v -0.073449 -0.165365 -0.048171
v -0.037463 -0.177023 -0.048171
v 0.000161 -0.180943 -0.048171
v 0.037778 -0.176955 -0.048171
v 0.073743 -0.165234 -0.048171
v 0.106486 -0.146291 -0.048171
v 0.134574 -0.120955 -0.048171
v 0.156782 -0.090332 -0.048171
v 0.172137 -0.055761 -0.048171
v 0.179968 -0.018753 -0.048171
v 0.179935 0.019074 -0.048171
v 0.172037 0.056068 -0.048171
v 0.156620 0.090611 -0.048171
v 0.134359 0.121194 -0.048171
v 0.106225 0.146481 -0.048171
v 0.073448 0.165365 -0.048171
v 0.037462 0.177022 -0.048171
v -0.000162 0.180943 -0.048171
v -0.037778 0.176955 -0.048171
v -0.073744 0.165234 -0.048171
v -0.106486 0.146291 -0.048171
v -0.134575 0.120954 -0.048171
v -0.156782 0.090332 -0.048171
v -0.172137 0.055761 -0.048171
v -0.179969 0.018753 -0.048171
v -0.179541 -0.019033 -0.030251
v -0.173228 -0.048601 -0.030251
v -0.156621 -0.090611 -0.030251
v -0.134359 -0.121194 -0.030251
v -0.099486 -0.149909 -0.030251
v -0.073288 -0.165003 -0.030251
v -0.044524 -0.174320 -0.030251
v 0.000161 -0.180943 -0.030251
v 0.037778 -0.176955 -0.030251
v 0.080081 -0.161111 -0.030251
v 0.106252 -0.145970 -0.030251
v 0.128703 -0.125719 -0.030251
v 0.156782 -0.090332 -0.030251
v 0.172137 -0.055761 -0.030251
v 0.179567 -0.011203 -0.030251
v 0.179540 0.019032 -0.030251
v 0.173227 0.048601 -0.030251
v 0.156620 0.090611 -0.030251
v 0.134359 0.121194 -0.030251
v 0.099485 0.149908 -0.030251
v 0.073287 0.165003 -0.030251
v 0.044524 0.174320 -0.030251
v -0.000162 0.180943 -0.030251
v -0.037778 0.176955 -0.030251
v -0.080082 0.161111 -0.030251
v -0.106253 0.145970 -0.030251
v -0.128704 0.125719 -0.030251
v -0.156782 0.090332 -0.030251
v -0.172137 0.055761 -0.030251
v -0.179568 0.011203 -0.030251
v -0.124219 0.042222 -0.035779
v 0.055787 -0.009210 -0.043466
v -0.114609 0.063857 -0.035779
v 0.044236 -0.035217 -0.043466
v -0.025545 0.128687 -0.035779
v 0.035870 0.043709 -0.043466
v -0.002004 0.131182 -0.035779
v 0.052617 0.020702 -0.043466
v 0.098674 0.086466 -0.035779
v 0.008380 0.055919 -0.043466
v 0.112605 0.067326 -0.035779
v -0.019918 0.052919 -0.043466
v 0.124218 -0.042221 -0.035779
v -0.055788 0.009210 -0.043466
v 0.114609 -0.063857 -0.035779
v -0.044237 0.035217 -0.043466
v 0.025544 -0.128687 -0.035779
v -0.052617 -0.020702 -0.043466
v 0.002003 -0.131183 -0.035779
v -0.035871 -0.043709 -0.043466
v -0.098674 -0.086466 -0.035779
v 0.019917 -0.052919 -0.043466
v -0.112606 -0.067326 -0.035779
v -0.008381 -0.055919 -0.043466
v -0.146097 -0.087881 0.010660
v -0.159204 -0.054724 0.010660
v -0.128527 -0.112019 0.010660
v -0.101002 -0.134682 0.010660
v 0.003058 -0.170464 0.010660
v -0.032210 -0.165236 0.010660
v 0.032748 -0.167316 0.010660
v 0.066137 -0.154811 0.010660
v 0.149155 -0.082583 0.010660
v 0.126994 -0.110513 0.010660
v 0.161274 -0.055298 0.010660
v 0.167138 -0.020129 0.010660
v 0.146096 0.087881 0.010660
v 0.159204 0.054723 0.010660
v 0.128526 0.112019 0.010660
v 0.101001 0.134682 0.010660
v -0.003059 0.170463 0.010660
v 0.032210 0.165236 0.010660
v -0.032748 0.167316 0.010660
v -0.066137 0.154811 0.010660
v -0.149155 0.082583 0.010660
v -0.126994 0.110513 0.010660
v -0.161274 0.055298 0.010660
v -0.167139 0.020130 0.010660
v -0.003665 0.144004 0.047518
v 0.003664 -0.144004 0.047518
v 0.122879 0.075175 0.047518
v -0.135909 0.047743 0.047518
v -0.122879 -0.075176 0.047518
v -0.126544 0.068829 0.047518
v 0.126543 -0.068829 0.047518
v 0.109301 0.093830 0.047518
v -0.026609 0.141572 0.047518
v 0.135909 -0.047742 0.047518
v 0.026608 -0.141572 0.047518
v -0.109301 -0.093830 0.047518
vn 0.0009 -1.0000 -0.0000
vn 0.2088 -0.9780 -0.0000
vn 0.2070 0.9783 -0.0000
vn -0.0009 1.0000 -0.0000
vn 0.4076 -0.9132 -0.0000
vn -0.2088 0.9780 -0.0000
vn 0.5885 -0.8085 -0.0000
vn -0.4076 0.9132 -0.0000
vn 0.7437 -0.6685 -0.0000
vn -0.5885 0.8085 -0.0000
vn 0.8665 -0.4992 -0.0000
vn -0.7437 0.6685 -0.0000
vn 0.9513 -0.3082 -0.0000
vn -0.8665 0.4992 -0.0000
vn 0.9946 -0.1036 -0.0000
vn -0.9944 -0.1054 -0.0000
vn -0.9508 -0.3099 -0.0000
vn -0.9513 0.3082 -0.0000
vn 0.9944 0.1054 -0.0000
vn -0.8656 -0.5008 -0.0000
vn -0.9946 0.1036 -0.0000
vn 0.9508 0.3099 -0.0000
vn -0.7425 -0.6698 -0.0000
vn 0.8656 0.5008 -0.0000
vn -0.5871 -0.8095 -0.0000
vn 0.7425 0.6698 -0.0000
vn -0.4059 -0.9139 -0.0000
vn 0.5871 0.8095 -0.0000
vn -0.2070 -0.9783 -0.0000
vn 0.4059 0.9139 -0.0000
vn -0.0000 -0.0000 1.0000
vn -0.0000 -0.0000 -1.0000
vn -0.7426 -0.6698 -0.0000
vn -0.3967 0.9171 -0.0395
vn -0.2202 0.9751 -0.0250
vn -0.2251 0.9646 -0.1371
vn -0.4121 0.9057 -0.0990
vn 0.2202 -0.9751 -0.0250
vn -0.0108 -0.9996 -0.0250
vn -0.0179 -0.9904 -0.1371
vn 0.2251 -0.9646 -0.1371
vn -0.5884 0.8083 -0.0222
vn 0.3967 -0.9171 -0.0395
vn 0.4121 -0.9057 -0.0990
vn -0.7508 0.6594 -0.0395
vn -0.7353 0.6705 -0.0990
vn 0.5884 -0.8083 -0.0221
vn -0.8603 0.5092 -0.0250
vn -0.8488 0.5107 -0.1371
vn 0.7508 -0.6593 -0.0395
vn 0.7353 -0.6705 -0.0990
vn -0.9546 0.2969 -0.0250
vn -0.9480 0.2873 -0.1371
vn 0.8603 -0.5092 -0.0250
vn 0.8488 -0.5107 -0.1371
vn -0.9926 0.1150 -0.0395
vn -0.9904 0.0960 -0.0990
vn 0.9464 0.3205 -0.0395
vn 0.9942 0.1054 -0.0221
vn 0.9483 0.3015 -0.0990
vn 0.9546 -0.2969 -0.0250
vn 0.9480 -0.2873 -0.1371
vn -0.9942 -0.1054 -0.0222
vn 0.8711 0.4905 -0.0250
vn 0.8667 0.4797 -0.1371
vn 0.9926 -0.1150 -0.0395
vn 0.9904 -0.0960 -0.0990
vn -0.9464 -0.3206 -0.0395
vn -0.9483 -0.3015 -0.0990
vn 0.7344 0.6782 -0.0250
vn 0.7228 0.6773 -0.1371
vn -0.8711 -0.4904 -0.0250
vn -0.8667 -0.4797 -0.1371
vn 0.5959 0.8021 -0.0395
vn 0.5783 0.8098 -0.0990
vn -0.7344 -0.6782 -0.0250
vn -0.7228 -0.6773 -0.1371
vn 0.4058 0.9137 -0.0221
vn -0.5959 -0.8021 -0.0395
vn -0.5783 -0.8098 -0.0990
vn 0.1956 0.9799 -0.0395
vn 0.2131 0.9720 -0.0990
vn -0.4058 -0.9137 -0.0221
vn 0.0108 0.9996 -0.0250
vn 0.0179 0.9904 -0.1371
vn -0.1956 -0.9799 -0.0395
vn -0.2130 -0.9720 -0.0990
vn 0.0540 -0.0760 -0.9956
vn 0.0497 -0.0860 -0.9951
vn 0.0398 -0.0916 -0.9950
vn -0.3466 -0.9332 -0.0945
vn 0.1361 0.9182 -0.3720
vn 0.0162 0.9084 -0.4179
vn 0.6349 -0.7668 -0.0945
vn -0.6631 -0.6211 -0.4179
vn -0.5900 -0.7166 -0.3719
vn 0.0352 0.0844 -0.9958
vn 0.0388 0.0848 -0.9956
vn 0.0594 0.0803 -0.9950
vn 0.0193 0.0974 -0.9951
vn -0.1042 0.9827 -0.1533
vn 0.0496 0.0861 -0.9951
vn -0.0352 -0.0844 -0.9958
vn -0.0388 -0.0848 -0.9956
vn -0.0595 -0.0803 -0.9950
vn -0.0193 -0.0974 -0.9951
vn -0.7948 -0.4401 -0.4179
vn -0.0496 -0.0861 -0.9951
vn 0.6631 0.6211 -0.4179
vn 0.5900 0.7166 -0.3720
vn 0.1042 -0.9827 -0.1533
vn -0.8632 -0.3413 -0.3719
vn -0.0929 -0.0088 -0.9956
vn -0.0993 -0.0001 -0.9951
vn -0.0993 0.0113 -0.9950
vn 0.9946 0.0430 -0.0945
vn 0.0907 0.0117 -0.9958
vn 0.0929 0.0088 -0.9956
vn 0.0993 -0.0113 -0.9950
vn 0.0940 0.0320 -0.9951
vn 0.7948 0.4401 -0.4179
vn 0.8694 -0.2637 -0.4179
vn 0.9156 -0.1527 -0.3720
vn 0.0993 0.0001 -0.9951
vn 0.8633 0.3412 -0.3720
vn -0.0907 -0.0117 -0.9958
vn -0.0940 -0.0320 -0.9951
vn 0.9031 -0.4011 -0.1533
vn -0.9815 -0.1665 -0.0945
vn 0.7785 -0.4682 -0.4179
vn -0.0555 0.0727 -0.9958
vn -0.0540 0.0760 -0.9956
vn -0.0398 0.0916 -0.9950
vn -0.0748 0.0654 -0.9951
vn -0.8694 0.2637 -0.4179
vn -0.9156 0.1527 -0.3720
vn -0.0497 0.0860 -0.9951
vn 0.0555 -0.0727 -0.9958
vn 0.0748 -0.0654 -0.9951
vn -0.9946 -0.0430 -0.0945
vn -0.0598 -0.0188 -0.9980
vn -0.0362 -0.0511 -0.9980
vn 0.0136 0.0612 -0.9980
vn -0.0262 0.0569 -0.9980
vn -0.0136 -0.0612 -0.9980
vn 0.0624 -0.0058 -0.9980
vn 0.0598 0.0188 -0.9980
vn -0.0624 0.0058 -0.9980
vn 0.0262 -0.0569 -0.9980
vn 0.0462 -0.0424 -0.9980
vn -0.0462 0.0424 -0.9980
vn 0.0362 0.0511 -0.9980
vn 0.2063 -0.8848 -0.4179
vn -0.0162 -0.9084 -0.4179
vn 0.0251 -0.8123 -0.5827
vn 0.1457 -0.7995 -0.5827
vn -0.3256 0.8693 -0.3719
vn -0.2063 0.8848 -0.4179
vn -0.1457 0.7995 -0.5827
vn -0.1361 -0.9182 -0.3720
vn -0.0251 0.8123 -0.5827
vn -0.6195 -0.5260 -0.5827
vn -0.6909 -0.4279 -0.5827
vn 0.6195 0.5260 -0.5827
vn 0.6909 0.4279 -0.5827
vn 0.7653 -0.2735 -0.5827
vn 0.7160 -0.3844 -0.5827
vn -0.7653 0.2735 -0.5827
vn 0.7272 -0.5770 -0.3720
vn -0.7785 0.4682 -0.4179
vn -0.7160 0.3844 -0.5827
vn -0.7272 0.5770 -0.3720
vn 0.3256 -0.8693 -0.3719
vn -0.5345 0.8398 -0.0945
vn 0.5345 -0.8398 -0.0945
vn -0.7989 -0.5815 -0.1533
vn 0.3466 0.9332 -0.0945
vn 0.7990 0.5815 -0.1533
vn 0.9815 0.1665 -0.0945
vn -0.6349 0.7668 -0.0945
vn 0.4601 0.8828 -0.0945
vn -0.4600 -0.8829 -0.0945
vn -0.9031 0.4011 -0.1533
vt 0.028850 0.974432
vt 0.120582 0.957246
vt 0.119189 0.959573
s 1
usemtl MAIN
f 8/1/1 9/1/2 39/1/2 38/1/1
f 22/1/3 23/1/4 53/1/4 52/1/3
f 9/1/2 10/1/5 40/1/5 39/1/2
f 23/1/4 24/1/6 54/1/6 53/1/4
f 10/1/5 11/1/7 41/1/7 40/1/5
f 24/1/6 25/1/8 55/1/8 54/1/6
f 11/1/7 12/1/9 42/1/9 41/1/7
f 25/1/8 26/1/10 56/1/10 55/1/8
f 12/1/9 13/1/11 43/1/11 42/1/9
f 26/1/10 27/1/12 57/1/12 56/1/10
f 13/1/11 14/1/13 44/1/13 43/1/11
f 27/1/12 28/1/14 58/1/14 57/1/12
f 14/1/13 15/1/15 45/1/15 44/1/13
f 1/1/16 2/1/17 32/1/17 31/1/16
f 28/1/14 29/1/18 59/1/18 58/1/14
f 15/1/15 16/1/19 46/1/19 45/1/15
f 2/1/17 3/1/20 33/1/20 32/1/17
f 29/1/18 30/1/21 60/1/21 59/1/18
f 16/1/19 17/1/22 47/1/22 46/1/19
f 3/1/20 4/1/23 34/1/23 33/1/20
f 30/1/21 1/1/16 31/1/16 60/1/21
f 17/1/22 18/1/24 48/1/24 47/1/22
f 4/1/23 5/1/25 35/1/25 34/1/23
f 18/1/24 19/1/26 49/1/26 48/1/24
f 5/1/25 6/1/27 36/1/27 35/1/25
f 19/1/26 20/1/28 50/1/28 49/1/26
f 6/1/27 7/1/29 37/1/29 36/1/27
f 20/1/28 21/1/30 51/1/30 50/1/28
f 7/1/29 8/1/1 38/1/1 37/1/29
f 21/1/30 22/1/3 52/1/3 51/1/30
f 35/1/31 36/1/31 61/1/31
f 49/1/31 50/1/31 61/1/31
f 36/1/31 37/1/31 61/1/31
f 50/1/31 51/1/31 61/1/31
f 37/1/31 38/1/31 61/1/31
f 51/1/31 52/1/31 61/1/31
f 38/1/31 39/1/31 61/1/31
f 52/1/31 53/1/31 61/1/31
f 39/1/31 40/1/31 61/1/31
f 53/1/31 54/1/31 61/1/31
f 40/1/31 41/1/31 61/1/31
f 54/1/31 55/1/31 61/1/31
f 41/1/31 42/1/31 61/1/31
f 55/1/31 56/1/31 61/1/31
f 42/1/31 43/1/31 61/1/31
f 56/1/31 57/1/31 61/1/31
f 43/1/31 44/1/31 61/1/31
f 57/1/31 58/1/31 61/1/31
f 44/1/31 45/1/31 61/1/31
f 31/1/31 32/1/31 61/1/31
f 58/1/31 59/1/31 61/1/31
f 45/1/31 46/1/31 61/1/31
f 32/1/31 33/1/31 61/1/31
f 59/1/31 60/1/31 61/1/31
f 46/1/31 47/1/31 61/1/31
f 33/1/31 34/1/31 61/1/31
f 60/1/31 31/1/31 61/1/31
f 47/1/31 48/1/31 61/1/31
f 34/1/31 35/1/31 61/1/31
f 48/1/31 49/1/31 61/1/31
f 9/1/32 8/1/32 69/1/32 70/1/32
f 23/1/32 22/1/32 83/1/32 84/1/32
f 10/1/32 9/1/32 70/1/32 71/1/32
f 24/1/32 23/1/32 84/1/32 85/1/32
f 11/1/32 10/1/32 71/1/32 72/1/32
f 25/1/32 24/1/32 85/1/32 86/1/32
f 12/1/32 11/1/32 72/1/32 73/1/32
f 26/1/32 25/1/32 86/1/32 87/1/32
f 13/1/32 12/1/32 73/1/32 74/1/32
f 27/1/32 26/1/32 87/1/32 88/1/32
f 14/1/32 13/1/32 74/1/32 75/1/32
f 28/1/32 27/1/32 88/1/32 89/1/32
f 15/1/32 14/1/32 75/1/32 76/1/32
f 2/1/32 1/1/32 62/1/32 63/1/32
f 29/1/32 28/1/32 89/1/32 90/1/32
f 16/1/32 15/1/32 76/1/32 77/1/32
f 3/1/32 2/1/32 63/1/32 64/1/32
f 30/1/32 29/1/32 90/1/32 91/1/32
f 17/1/32 16/1/32 77/1/32 78/1/32
f 4/1/32 3/1/32 64/1/32 65/1/32
f 1/1/32 30/1/32 91/1/32 62/1/32
f 18/1/32 17/1/32 78/1/32 79/1/32
f 5/1/32 4/1/32 65/1/32 66/1/32
f 19/1/32 18/1/32 79/1/32 80/1/32
f 6/1/32 5/1/32 66/1/32 67/1/32
f 20/1/32 19/1/32 80/1/32 81/1/32
f 7/1/32 6/1/32 67/1/32 68/1/32
f 21/1/32 20/1/32 81/1/32 82/1/32
f 8/1/32 7/1/32 68/1/32 69/1/32
f 22/1/32 21/1/32 82/1/32 83/1/32
f 84/2/4 83/2/3 113/2/3 114/2/4
f 71/2/5 70/2/2 100/2/2 101/2/5
f 85/2/6 84/2/4 114/2/4 115/2/6
f 72/2/7 71/2/5 101/2/5 102/2/7
f 86/2/8 85/2/6 115/2/6 116/2/8
f 73/2/9 72/2/7 102/2/7 103/2/9
f 87/2/10 86/2/8 116/2/8 117/2/10
f 74/2/11 73/2/9 103/2/9 104/2/11
f 88/2/12 87/2/10 117/2/10 118/2/12
f 75/2/13 74/2/11 104/2/11 105/2/13
f 89/2/14 88/2/12 118/2/12 119/2/14
f 76/2/15 75/2/13 105/2/13 106/2/15
f 63/2/17 62/2/16 92/2/16 93/2/17
f 90/2/18 89/2/14 119/2/14 120/2/18
f 77/2/19 76/2/15 106/2/15 107/2/19
f 64/2/20 63/2/17 93/2/17 94/2/20
f 91/2/21 90/2/18 120/2/18 121/2/21
f 78/2/22 77/2/19 107/2/19 108/2/22
f 65/2/33 64/2/20 94/2/20 95/2/33
f 62/2/16 91/2/21 121/2/21 92/2/16
f 79/2/24 78/2/22 108/2/22 109/2/24
f 66/2/25 65/2/33 95/2/33 96/2/25
f 80/2/26 79/2/24 109/2/24 110/2/26
f 67/2/27 66/2/25 96/2/25 97/2/27
f 81/2/28 80/2/26 110/2/26 111/2/28
f 68/2/29 67/2/27 97/2/27 98/2/29
f 82/2/30 81/2/28 111/2/28 112/2/30
f 69/2/1 68/2/29 98/2/29 99/2/1
f 83/2/3 82/2/30 112/2/30 113/2/3
f 70/2/2 69/2/1 99/2/1 100/2/2
f 94/3/32 93/3/32 123/3/32 124/3/32
f 121/3/32 120/3/32 150/3/32 151/3/32
f 108/3/32 107/3/32 137/3/32 138/3/32
f 95/3/32 94/3/32 124/3/32 125/3/32
f 92/3/32 121/3/32 151/3/32 122/3/32
f 109/3/32 108/3/32 138/3/32 139/3/32
f 96/3/32 95/3/32 125/3/32 126/3/32
f 110/3/32 109/3/32 139/3/32 140/3/32
f 97/3/32 96/3/32 126/3/32 127/3/32
f 111/3/32 110/3/32 140/3/32 141/3/32
f 98/3/32 97/3/32 127/3/32 128/3/32
f 112/3/32 111/3/32 141/3/32 142/3/32
f 99/3/32 98/3/32 128/3/32 129/3/32
f 113/3/32 112/3/32 142/3/32 143/3/32
f 100/3/32 99/3/32 129/3/32 130/3/32
f 114/3/32 113/3/32 143/3/32 144/3/32
f 101/3/32 100/3/32 130/3/32 131/3/32
f 115/3/32 114/3/32 144/3/32 145/3/32
f 102/3/32 101/3/32 131/3/32 132/3/32
f 116/3/32 115/3/32 145/3/32 146/3/32
f 103/3/32 102/3/32 132/3/32 133/3/32
f 117/3/32 116/3/32 146/3/32 147/3/32
f 104/3/32 103/3/32 133/3/32 134/3/32
f 118/3/32 117/3/32 147/3/32 148/3/32
f 105/3/32 104/3/32 134/3/32 135/3/32
f 119/3/32 118/3/32 148/3/32 149/3/32
f 106/3/32 105/3/32 135/3/32 136/3/32
f 93/3/32 92/3/32 122/3/32 123/3/32
f 120/3/32 119/3/32 149/3/32 150/3/32
f 107/3/32 106/3/32 136/3/32 137/3/32
f 131/3/34 130/3/35 160/3/36 161/3/37
f 145/3/38 144/3/39 174/3/40 175/3/41
f 132/3/42 131/3/34 161/3/37 162/3/42
f 146/3/43 145/3/38 175/3/41 176/3/44
f 133/3/45 132/3/42 162/3/42 163/3/46
f 147/3/47 146/3/43 176/3/44 177/3/47
f 134/3/48 133/3/45 163/3/46 164/3/49
f 148/3/50 147/3/47 177/3/47 178/3/51
f 135/3/52 134/3/48 164/3/49 165/3/53
f 149/3/54 148/3/50 178/3/51 179/3/55
f 136/3/56 135/3/52 165/3/53 166/3/57
f 123/3/58 122/3/59 152/3/59 153/3/60
f 150/3/61 149/3/54 179/3/55 180/3/62
f 137/3/63 136/3/56 166/3/57 167/3/63
f 124/3/64 123/3/58 153/3/60 154/3/65
f 151/3/66 150/3/61 180/3/62 181/3/67
f 138/3/68 137/3/63 167/3/63 168/3/69
f 125/3/70 124/3/64 154/3/65 155/3/71
f 122/3/59 151/3/66 181/3/67 152/3/59
f 139/3/72 138/3/68 168/3/69 169/3/73
f 126/3/74 125/3/70 155/3/71 156/3/75
f 140/3/76 139/3/72 169/3/73 170/3/77
f 127/3/78 126/3/74 156/3/75 157/3/78
f 141/3/79 140/3/76 170/3/77 171/3/80
f 128/3/81 127/3/78 157/3/78 158/3/82
f 142/3/83 141/3/79 171/3/80 172/3/83
f 129/3/84 128/3/81 158/3/82 159/3/85
f 143/3/86 142/3/83 172/3/83 173/3/87
f 130/3/35 129/3/84 159/3/85 160/3/36
f 144/3/39 143/3/86 173/3/87 174/3/40
f 162/3/88 161/3/89 198/3/90
f 153/3/91 204/3/91 234/3/91 207/3/91
f 159/3/85 158/3/82 211/3/92 210/3/93
f 158/3/94 200/3/94 231/3/94 211/3/94
f 171/3/80 170/3/77 220/3/95 221/3/96
f 173/3/97 172/3/98 190/3/99 188/3/100
f 188/3/101 186/3/101 238/3/101 230/3/101
f 172/3/98 171/3/102 190/3/99
f 158/3/103 157/3/104 202/3/105 200/3/106
f 170/3/77 169/3/73 218/3/107 220/3/95
f 157/3/104 156/3/108 202/3/105
f 156/3/75 155/3/71 208/3/109 209/3/110
f 200/3/111 198/3/111 240/3/111 231/3/111
f 169/3/73 168/3/69 219/3/112 218/3/107
f 152/3/113 181/3/114 182/3/115
f 190/3/116 171/3/116 221/3/116 237/3/116
f 168/3/117 167/3/118 194/3/119 192/3/120
f 155/3/71 154/3/65 206/3/121 208/3/109
f 181/3/67 180/3/62 228/3/122 229/3/123
f 167/3/118 166/3/124 194/3/119
f 154/3/65 153/3/60 207/3/125 206/3/121
f 153/3/126 152/3/113 182/3/115 204/3/127
f 196/3/128 194/3/128 239/3/128 236/3/128
f 178/3/129 184/3/129 235/3/129 227/3/129
f 180/3/62 179/3/55 226/3/130 228/3/122
f 178/3/131 177/3/132 186/3/133 184/3/134
f 166/3/57 165/3/53 216/3/135 217/3/136
f 177/3/132 176/3/137 186/3/133
f 163/3/138 162/3/88 198/3/90 196/3/139
f 202/3/140 156/3/140 209/3/140 241/3/140
f 202/3/105 204/3/127 199/3/141 201/3/142
f 186/3/133 188/3/100 191/3/143 193/3/144
f 200/3/106 202/3/105 201/3/142 205/3/145
f 192/3/120 194/3/119 183/3/146 189/3/147
f 204/3/127 182/3/115 195/3/148 199/3/141
f 196/3/139 198/3/90 203/3/149 185/3/150
f 198/3/90 200/3/106 205/3/145 203/3/149
f 182/3/115 184/3/134 197/3/151 195/3/148
f 184/3/134 186/3/133 193/3/144 197/3/151
f 190/3/99 192/3/120 189/3/147 187/3/152
f 188/3/100 190/3/99 187/3/152 191/3/143
f 194/3/119 196/3/139 185/3/150 183/3/146
f 185/3/150 203/3/149 205/3/145 201/3/142
f 183/3/146 185/3/150 201/3/142 199/3/141
f 199/3/141 195/3/148 189/3/147 183/3/146
f 195/3/148 197/3/151 187/3/152 189/3/147
f 191/3/143 187/3/152 197/3/151 193/3/144
f 224/3/153 222/3/154 230/3/155 238/3/156
f 213/3/157 212/3/158 240/3/159
f 222/3/154 223/3/160 230/3/155
f 212/3/158 210/3/93 231/3/161 240/3/159
f 210/3/93 211/3/92 231/3/161
f 221/3/96 220/3/95 237/3/162
f 220/3/95 218/3/107 232/3/163 237/3/162
f 209/3/110 208/3/109 241/3/164
f 218/3/107 219/3/112 232/3/163
f 208/3/109 206/3/121 234/3/165 241/3/164
f 229/3/123 228/3/122 233/3/166
f 206/3/121 207/3/125 234/3/165
f 228/3/122 226/3/130 235/3/167 233/3/166
f 217/3/136 216/3/135 239/3/168
f 226/3/130 227/3/169 235/3/167
f 216/3/135 214/3/170 236/3/171 239/3/168
f 214/3/170 215/3/172 236/3/171
f 225/3/173 224/3/153 238/3/156
f 182/3/174 181/3/174 229/3/174 233/3/174
f 160/3/36 159/3/85 210/3/93 212/3/158
f 194/3/175 166/3/175 217/3/175 239/3/175
f 174/3/40 173/3/87 223/3/160 222/3/154
f 204/3/176 202/3/176 241/3/176 234/3/176
f 161/3/37 160/3/36 212/3/158 213/3/157
f 168/3/177 192/3/177 232/3/177 219/3/177
f 175/3/41 174/3/40 222/3/154 224/3/153
f 192/3/178 190/3/178 237/3/178 232/3/178
f 176/3/44 175/3/41 224/3/153 225/3/173
f 163/3/179 196/3/179 236/3/179 215/3/179
f 164/3/49 163/3/46 215/3/172 214/3/170
f 173/3/180 188/3/180 230/3/180 223/3/180
f 186/3/181 176/3/181 225/3/181 238/3/181
f 165/3/53 164/3/49 214/3/170 216/3/135
f 198/3/182 161/3/182 213/3/182 240/3/182
f 184/3/183 182/3/183 233/3/183 235/3/183
f 179/3/55 178/3/51 227/3/169 226/3/130
