# Blender 4.5.4 LTS
# www.blender.org
mtllib HouseLowPoly2.mtl
o Object012
v 30.986200 0.000006 -39.161896
v 23.533600 0.000006 -39.161896
v 27.259899 18.748306 -37.010593
v 27.259899 0.000005 -32.707798
v -17.755400 0.000008 -48.328194
v -25.208000 0.000008 -48.328194
v -21.481701 18.748308 -46.176792
v -21.481701 0.000007 -41.873997
v -27.924299 0.000009 -52.287193
v -32.903198 0.000008 -51.409294
v -30.160299 12.718709 -50.410889
v -29.653500 0.000008 -47.536297
v -18.002600 0.000009 -52.966991
v -21.706800 0.000009 -52.642891
v -19.761200 9.354408 -51.735592
v -19.573999 0.000008 -49.596893
v -48.916100 -0.000002 13.645398
v -53.895100 -0.000002 14.523298
v -51.152199 12.718698 15.521700
v -50.645302 -0.000003 18.396297
v -49.441700 -0.000003 20.144499
v -56.894299 -0.000003 20.144398
v -53.167999 18.748297 22.295801
v -53.167999 -0.000004 26.598597
v 20.976601 0.000002 -9.796599
v 20.976601 8.869201 -5.115098
v 20.125500 8.869201 -5.115098
v 20.145100 0.000002 -9.796599
v 20.976601 0.000002 -12.391998
v 20.976601 23.647600 0.000004
v 20.976601 18.560101 0.000003
v 20.976601 10.839801 -4.074997
v 20.246000 18.560101 0.000003
v 20.263000 10.839801 -4.074997
v 20.976601 10.839799 4.075001
v 20.976601 8.869199 5.115101
v 19.954399 10.839799 4.075001
v 20.976601 -0.000002 9.796599
v 19.403200 -0.000002 9.796599
v 19.738199 8.869199 5.115101
v 20.976601 -0.000002 12.391998
v 19.823500 8.869200 2.068201
v 20.036400 8.869200 -1.922998
v 19.996300 6.692201 -1.896599
v 19.872900 0.000000 -1.815400
v 19.783400 6.693900 2.094601
v 19.660101 -0.000000 2.175800
v 19.883301 6.692800 2.099901
v 19.759899 -0.001100 2.181100
v 19.972799 -0.001100 -1.810100
v 20.096100 6.691101 -1.891199
v -17.337000 0.000002 -9.796599
v -18.168501 0.000002 -9.796599
v -18.168501 0.000002 -12.391998
v -18.168501 -0.000002 12.391998
v -18.168501 -0.000002 9.796599
v -16.595100 -0.000002 9.796599
v -17.317400 8.869201 -5.115098
v -18.168501 8.869201 -5.115098
v -18.168501 10.839801 -4.074997
v -18.168501 18.560101 0.000003
v -18.168501 23.647600 0.000004
v -17.454901 10.839801 -4.074997
v -17.437901 18.560101 0.000003
v -18.168501 8.869199 5.115101
v -18.168501 10.839799 4.075001
v -17.146299 10.839799 4.075001
v -16.930099 8.869199 5.115101
v -17.228201 8.869200 -1.922998
v -17.015400 8.869200 2.068201
v -17.064800 0.000000 -1.815400
v -17.188101 6.692201 -1.896599
v -16.975300 6.693900 2.094601
v -16.851900 -0.000000 2.175800
v -17.075100 6.692800 2.099901
v -17.288000 6.691101 -1.891199
v -17.164600 -0.001100 -1.810100
v -16.951799 -0.001100 2.181100
v 2.423200 -0.000006 35.407196
v -5.029300 -0.000006 35.407196
v -1.303000 18.748295 37.558601
v -1.303000 -0.000007 41.861298
v -1.129500 -0.000005 30.549196
v -4.833800 -0.000005 30.873196
v -2.888100 9.354395 31.780499
v -2.701000 -0.000006 33.919197
v 12.298900 -0.000006 38.367695
v 7.320000 -0.000006 39.245598
v 10.062900 12.718694 40.243900
v 10.569800 -0.000007 43.118496
v 76.359497 0.000987 77.723625
v 76.359497 0.001012 -73.951591
v -75.315674 0.001012 -73.951530
v -75.315674 0.000987 77.723625
v -43.077400 -0.000004 23.345398
v -46.781601 -0.000004 23.669498
v -44.835899 9.354396 24.576797
v -44.648800 -0.000004 26.715496
vn 0.8521 0.1785 -0.4920
vn -0.8521 0.1785 -0.4920
vn 0.0001 1.0000 -0.0000
vn -0.0000 0.1785 0.9839
vn 0.0001 1.0000 0.0001
vn -0.0000 1.0000 0.0001
vn 0.7537 0.1785 -0.6325
vn -0.9246 0.1785 -0.3365
vn -0.0001 1.0000 -0.0000
vn 0.1709 0.1785 0.9690
vn -0.0000 1.0000 -0.0001
vn 0.8060 0.1785 -0.5644
vn -0.8917 0.1787 -0.4158
vn 0.0858 0.1785 0.9802
vn 0.5920 -0.5294 0.6077
vn 0.2087 -0.9414 0.2649
vn 0.6011 -0.6651 0.4431
vn 0.5469 0.8372 0.0001
vn 0.9377 0.3444 -0.0469
vn 0.9561 -0.2932 0.0001
vn 0.5483 0.4604 0.6981
vn 0.9376 0.3444 -0.0469
vn 0.9377 0.3476 -0.0033
vn 0.9210 -0.2825 0.2683
vn 0.5920 -0.5293 0.6077
vn 0.5961 0.4604 0.6578
vn 0.9397 0.0367 -0.3400
vn 0.6011 -0.6651 -0.4431
vn 0.6011 -0.6710 -0.4342
vn 0.9210 -0.3551 0.1604
vn 0.8015 0.0367 -0.5969
vn 0.4921 -0.8705 -0.0003
vn 0.5403 -0.8414 0.0021
vn 0.5775 0.4536 -0.6788
vn 0.6550 -0.5293 0.5392
vn 0.0657 -0.6710 -0.7386
vn 0.7053 0.6992 0.1170
vn 0.5895 -0.6252 0.5115
vn 0.9193 0.0112 -0.3934
vn 0.3329 -0.3364 -0.8809
vn 0.7430 -0.3428 -0.5748
vn 0.9223 0.2575 -0.2883
vn 0.7143 0.6992 0.0290
vn 0.6028 -0.6463 -0.4679
vn 0.5695 0.8093 0.1438
vn 0.5916 -0.1769 0.7866
vn 0.5444 0.3973 0.7388
vn 0.5764 -0.7971 -0.1802
vn 0.6149 0.5663 -0.5488
vn 0.3577 -0.9061 0.2258
vn 0.5445 -0.5827 0.6033
vn 0.5501 0.5762 0.6045
vn 0.4056 -0.8711 -0.2769
vn 0.6034 -0.5838 -0.5432
vn 0.3100 -0.9054 -0.2902
vn 0.8974 0.2766 -0.3437
vn 0.6217 0.5662 -0.5411
vn 0.9215 0.2849 -0.2641
vn 0.5979 0.2805 0.7508
vn -0.0439 -0.8117 0.5824
vn 0.5546 0.5721 0.6043
vn -0.2087 -0.9414 0.2649
vn -0.5595 -0.4604 -0.6892
vn 0.5595 -0.4604 0.6892
vn -0.6010 -0.6652 -0.4430
vn -0.2075 -0.9471 -0.2447
vn -0.0799 -0.6152 0.7843
vn -0.6010 -0.6652 0.4430
vn -0.9581 0.2762 0.0756
vn -0.5469 0.8372 -0.0001
vn -0.5483 0.4604 0.6981
vn -0.9561 -0.2932 -0.0001
vn -0.7484 -0.5356 -0.3912
vn -0.9581 0.2622 0.1150
vn -0.9325 0.2337 0.2754
vn -0.5961 0.4604 0.6578
vn -0.6011 -0.6710 -0.4342
vn -0.9602 0.2337 -0.1527
vn -0.4921 -0.8705 -0.0003
vn -0.5775 0.4536 -0.6788
vn -0.5403 -0.8414 0.0021
vn -0.7053 0.6992 0.1170
vn -0.0658 -0.6710 -0.7386
vn -0.0089 -0.6152 0.7883
vn -0.3329 -0.3364 -0.8809
vn -0.5702 -0.2162 -0.7925
vn -0.5895 -0.6252 0.5115
vn -0.5810 0.1632 -0.7974
vn -0.7430 -0.3428 -0.5748
vn -0.7143 0.6992 0.0291
vn 0.6317 0.2601 0.7303
vn -0.2231 -0.6881 -0.6905
vn -0.5905 -0.7827 -0.1967
vn -0.5777 0.7805 0.2390
vn -0.6097 -0.4131 -0.6764
vn -0.5369 -0.5828 0.6100
vn -0.5445 -0.5829 0.6032
vn -0.3577 -0.9061 0.2258
vn -0.5499 0.5763 0.6045
vn -0.6035 -0.5837 -0.5433
vn -0.4082 -0.4945 -0.7674
vn -0.3101 -0.9054 -0.2902
vn -0.6219 0.5661 -0.5411
vn 0.1153 0.6072 0.7862
vn -0.5813 0.2692 -0.7679
vn 0.0219 0.8539 0.5200
vn -0.5413 -0.5785 0.6101
vn -0.5500 0.5763 0.6045
vn 0.5595 -0.4604 -0.6892
vn -0.5361 0.8441 0.0001
vn 0.5361 0.8441 -0.0001
vn -0.5595 -0.4604 0.6892
vn -0.2193 -0.9414 0.2562
vn -0.0772 0.5762 0.8136
vn 0.3300 0.5763 0.7476
vn -0.8917 0.1785 -0.4158
vn -0.8918 0.1785 -0.4158
vn -0.0000 1.0000 -0.0000
vn 0.5909 -0.6683 0.4519
vn 0.5595 -0.4605 -0.6892
vn 0.9766 -0.2152 0.0001
vn 0.9377 0.2214 -0.2680
vn 0.9210 -0.3729 0.1129
vn 0.0150 0.4604 0.8876
vn 0.7577 0.0367 -0.6516
vn 0.2075 -0.9471 -0.2447
vn 0.1119 0.6992 -0.7061
vn 0.4309 -0.5293 0.7308
vn 0.7185 -0.5293 0.4513
vn 0.6169 -0.6710 -0.4113
vn 0.0271 -0.6710 -0.7410
vn 0.7043 -0.7093 0.0287
vn 0.0302 0.6992 -0.7143
vn 0.3068 -0.9290 -0.2068
vn 0.2102 -0.9410 0.2654
vn 0.6032 -0.7974 -0.0177
vn 0.5893 -0.2336 0.7734
vn 0.7166 0.6970 0.0259
vn 0.9173 0.3906 -0.0769
vn 0.7040 -0.7094 0.0344
vn 0.5983 0.2796 0.7509
vn 0.9049 0.4160 0.0896
vn 0.6218 0.7270 0.2912
vn 0.7044 -0.7093 0.0258
vn 0.6179 -0.2424 -0.7480
vn 0.5830 -0.8096 0.0675
vn 0.2062 -0.9475 -0.2444
vn 0.5451 0.4714 0.6933
vn 0.5778 0.7804 0.2390
vn 0.5370 -0.5826 0.6101
vn 0.6096 -0.4134 -0.6763
vn 0.3090 -0.9053 -0.2915
vn 0.5994 -0.5882 -0.5429
vn -0.0450 -0.5763 0.8160
vn 0.9213 0.2857 -0.2638
vn 0.6153 0.5664 -0.5483
vn 0.0276 -0.8208 -0.5705
vn 0.5949 0.2797 0.7536
vn 0.5546 0.5720 0.6043
vn 0.0579 0.5725 -0.8179
vn 0.3204 -0.5819 0.7475
vn 0.5500 0.5762 0.6045
vn 0.5414 -0.5783 0.6103
vn -0.5909 -0.6683 0.4519
vn -0.0892 -0.6142 0.7841
vn -0.9766 -0.2152 -0.0001
vn -0.7484 -0.3887 -0.5374
vn -0.9581 0.2734 -0.0851
vn -0.9491 0.2337 -0.2110
vn -0.0150 0.4604 0.8876
vn -0.7484 -0.4780 -0.4598
vn -0.5595 -0.4605 0.6892
vn 0.1402 -0.6152 0.7758
vn -0.1119 0.6992 -0.7061
vn -0.0380 0.6992 -0.7139
vn -0.7043 -0.7093 0.0287
vn -0.0271 -0.6710 -0.7410
vn -0.6169 -0.6710 -0.4113
vn -0.1044 -0.6152 0.7814
vn -0.6032 -0.7974 -0.0176
vn -0.2102 -0.9410 0.2653
vn -0.3068 -0.9290 -0.2068
vn -0.5741 0.7625 -0.2983
vn -0.7166 0.6970 0.0260
vn -0.5893 -0.2336 0.7734
vn -0.5664 0.7571 -0.3255
vn 0.6189 0.6127 0.4916
vn -0.7040 -0.7094 0.0344
vn -0.6179 -0.2424 -0.7480
vn -0.7044 -0.7093 0.0285
vn 0.6048 0.7831 0.1448
vn 0.6417 -0.6104 0.4643
vn -0.5490 0.5767 0.6050
vn -0.2047 -0.9664 -0.1556
vn -0.5442 0.3974 0.7389
vn -0.6150 0.5662 -0.5488
vn -0.5764 -0.7970 -0.1804
vn 0.0450 -0.5765 0.8159
vn -0.5995 -0.5880 -0.5430
vn -0.3090 -0.9053 -0.2915
vn -0.0278 -0.8207 -0.5706
vn -0.6153 0.5663 -0.5484
vn -0.5811 0.2700 -0.7677
vn -0.0581 0.5724 -0.8179
vn -0.5545 0.5721 0.6044
vn 0.6251 0.6128 0.4834
vn 0.6233 0.6083 0.4913
vn -0.5544 0.5721 0.6044
vn 0.0442 -0.8118 0.5822
vn -0.0435 0.5763 -0.8161
vn -0.3102 -0.9053 -0.2902
vn 0.0137 -0.9414 0.3370
vn 0.1504 -0.9414 0.3019
vn 0.4028 -0.9053 -0.1348
vn 0.7591 0.5762 0.3030
vn 0.1521 -0.9471 -0.2825
vn 0.1139 -0.9414 0.3175
vn -0.0964 -0.9053 -0.4137
vn -0.4974 0.5762 0.6485
vn 0.1130 0.5762 0.8094
vn -0.2147 -0.9471 -0.2384
vn -0.7425 0.5763 0.3414
vt 0.683900 0.563300
vt 0.683900 0.556600
vt 0.693700 0.556600
vt 0.683900 0.550000
vt 0.714300 0.589800
vt 0.705400 0.589800
vt 0.709900 0.580000
vt 0.804900 0.318500
vt 0.805600 0.308300
vt 0.804900 0.308300
vt 0.804900 0.329500
vt 0.804900 0.320700
vt 0.805500 0.320700
vt 0.806000 0.318500
vt 0.805500 0.329500
vt 0.317100 0.932800
vt 0.317100 0.941600
vt 0.317400 0.932800
vt 0.805700 0.318500
vt 0.807700 0.198900
vt 0.807800 0.196400
vt 0.807900 0.188800
vt 0.807900 0.198900
vt 0.807800 0.198900
vt 0.808000 0.198900
vt 0.808100 0.188800
vt 0.808000 0.196400
vt 0.556600 0.686900
vt 0.556500 0.679300
vt 0.556400 0.686900
vt 0.805800 0.308300
vt 0.806000 0.308300
vt 0.556700 0.679300
vt 0.806200 0.308300
vt 0.805800 0.320700
vt 0.808300 0.188800
vt 0.171000 0.720600
vt 0.225300 0.660100
vt 0.225300 0.720600
vt 0.805600 0.318500
vt 0.805900 0.318500
vt 0.807700 0.188800
vt 0.171000 0.660100
s 0
usemtl Stone__4__lambert2
f 1/1/1 2/2/2 3/3/3
f 2/2/2 4/4/4 3/3/5
f 4/5/4 1/6/1 3/7/6
f 5/1/1 6/2/2 7/3/3
f 6/2/2 8/4/4 7/3/5
f 8/5/4 5/6/1 7/7/6
f 9/1/7 10/2/8 11/3/9
f 10/2/8 12/4/10 11/3/11
f 12/5/10 9/6/7 11/7/6
f 13/1/12 14/2/13 15/3/3
f 14/2/13 16/4/14 15/3/5
f 16/5/14 13/6/12 15/7/6
f 17/1/7 18/2/8 19/3/3
f 18/2/8 20/4/10 19/3/11
f 20/5/10 17/6/7 19/7/11
f 21/1/1 22/2/2 23/3/9
f 22/2/2 24/4/4 23/3/5
f 24/5/4 21/6/1 23/7/6
f 79/1/1 80/2/2 81/3/9
f 80/2/2 82/4/4 81/3/11
f 82/5/4 79/6/1 81/7/6
f 83/1/12 84/2/116 85/3/9
f 84/2/117 86/4/14 85/3/5
f 86/5/14 83/6/12 85/7/6
f 87/1/7 88/2/8 89/3/9
f 88/2/8 90/4/10 89/3/5
f 90/5/10 87/6/7 89/7/6
f 95/1/12 96/2/116 97/3/9
f 96/2/117 98/4/14 97/3/5
f 98/5/14 95/6/12 97/7/6
s 1
usemtl Tree_defaultMat
f 26/8/15 28/9/16 25/10/17
f 30/11/18 32/12/19 25/10/17
f 31/11/20 34/13/21 32/12/22
s 0
f 32/12/23 36/8/24 26/8/25
f 34/13/26 35/12/27 32/12/22
s 1
f 38/10/28 40/14/29 36/8/30
f 38/10/28 35/12/31 30/11/18
f 35/12/31 33/15/32 31/11/20
s 0
f 34/16/21 33/17/33 37/18/34
f 26/8/35 40/14/36 43/19/37
f 27/20/38 44/21/39 45/22/40
f 42/23/41 44/21/42 43/24/43
f 40/25/44 47/26/45 46/27/46
f 48/28/47 50/29/48 51/30/49
f 45/31/50 49/32/51 47/32/52
f 44/30/53 50/29/54 45/29/55
f 46/28/56 51/30/57 44/30/58
f 46/28/59 49/33/60 48/28/61
s 1
f 28/9/16 52/9/62 54/10/63
f 41/10/64 56/10/65 57/34/66
f 52/9/62 59/8/67 53/10/68
f 53/10/68 60/12/69 62/11/70
f 63/13/71 61/11/72 60/12/69
s 0
f 65/8/73 60/12/74 59/8/67
f 66/12/75 63/13/76 60/12/69
s 1
f 56/10/65 68/14/77 57/34/66
f 62/11/70 66/12/78 56/10/65
f 66/12/78 64/15/79 67/35/80
s 0
f 63/16/71 67/18/80 64/17/81
f 69/19/82 68/14/83 59/8/84
f 71/22/85 72/21/86 58/20/87
f 72/21/88 70/23/89 69/24/90
f 73/27/91 57/36/92 68/25/93
f 75/28/94 77/29/95 78/33/96
f 78/32/97 71/31/98 74/32/99
f 77/29/100 72/30/101 71/29/102
f 76/30/103 73/28/104 72/30/105
f 73/28/106 78/33/107 74/33/108
s 1
f 29/10/109 62/11/110 30/11/111
f 30/11/111 55/10/112 41/10/64
s 0
f 52/9/113 47/32/114 74/32/115
s 1
f 91/37/118 93/38/118 94/39/118
f 26/8/15 27/40/119 28/9/16
f 25/10/17 29/10/120 30/11/18
f 30/11/18 31/11/121 32/12/19
f 32/12/19 26/8/25 25/10/17
f 31/11/20 33/15/32 34/13/21
s 0
f 32/12/122 35/12/31 36/8/123
f 34/13/124 37/35/34 35/12/125
s 1
f 38/10/28 39/34/126 40/14/29
f 30/11/18 41/10/64 38/10/28
f 38/10/28 36/8/30 35/12/31
f 35/12/31 31/11/121 30/11/18
f 35/12/31 37/35/34 33/15/32
s 0
f 43/19/127 27/40/119 26/8/128
f 26/8/129 36/8/30 40/14/130
f 40/14/131 42/41/132 43/19/133
f 45/22/134 28/42/135 27/20/136
f 27/20/137 43/24/138 44/21/139
f 42/23/140 46/27/141 44/21/142
f 46/27/143 42/23/144 40/25/145
f 40/25/146 39/36/147 47/26/148
f 48/28/149 49/33/150 50/29/151
f 45/31/152 50/31/153 49/32/154
f 44/30/155 51/30/156 50/29/157
f 46/28/158 48/28/159 51/30/160
f 46/28/161 47/33/162 49/33/163
s 1
f 54/10/63 29/10/109 25/10/17
f 54/10/63 25/10/17 28/9/16
f 52/9/62 53/10/68 54/10/63
f 39/34/126 38/10/28 41/10/64
f 41/10/64 55/10/112 56/10/65
f 57/34/66 39/34/126 41/10/64
f 52/9/62 58/40/164 59/8/67
f 62/11/70 54/10/63 53/10/68
f 53/10/68 59/8/165 60/12/69
f 60/12/69 61/11/166 62/11/70
f 63/13/71 64/15/79 61/11/72
s 0
f 65/8/167 66/12/78 60/12/168
f 66/12/169 67/35/80 63/13/170
s 1
f 56/10/65 65/8/171 68/14/77
f 56/10/65 55/10/172 62/11/70
f 62/11/70 61/11/166 66/12/78
f 66/12/78 65/8/171 56/10/65
f 66/12/78 61/11/72 64/15/79
s 0
f 59/8/173 58/40/164 69/19/174
f 69/19/175 70/41/176 68/14/177
f 68/14/178 65/8/171 59/8/179
f 58/20/180 52/42/181 71/22/182
f 72/21/183 69/24/184 58/20/185
f 72/21/186 73/27/187 70/23/188
f 68/25/189 70/23/190 73/27/191
f 73/27/192 74/26/193 57/36/194
f 75/28/195 76/30/196 77/29/197
f 78/32/198 77/31/199 71/31/200
f 77/29/201 76/30/202 72/30/203
f 76/30/204 75/28/205 73/28/206
f 73/28/207 75/28/208 78/33/209
s 1
f 29/10/109 54/10/63 62/11/110
f 30/11/111 62/11/110 55/10/112
s 0
f 74/32/210 71/31/211 52/9/212
f 52/9/213 28/9/16 45/31/214
f 47/32/215 39/34/126 57/34/216
f 52/9/217 45/31/218 47/32/219
f 47/32/220 57/34/221 74/32/222
s 1
f 91/37/118 92/43/118 93/38/118
